<svg width="20" height="19" viewBox="0 0 20 19" fill="none" xmlns="http://www.w3.org/2000/svg">
<path d="M18.5645 2.47319C17.7395 1.14616 16.4317 0.420064 14.567 0.25272C13.4973 0.15897 12.2125 0.484283 11.1803 0.747252C10.7153 0.865846 10.1875 0.999908 10 0.999908C9.8125 0.999908 9.28844 0.865846 8.82812 0.747252C7.79313 0.482408 6.505 0.152408 5.43203 0.253189C3.62594 0.422408 2.33828 1.15272 1.49453 2.48538C0.650781 3.81803 0.25 5.73428 0.25 8.49991C0.25 11.3724 1.63422 13.8708 2.45922 15.1041C3.47594 16.6252 4.99609 18.2499 6.2125 18.2499C7.08297 18.2499 7.81188 17.911 8.45406 17.6105C9.39062 17.1718 10 17.1249 10 17.1249C10 17.1249 10.5156 17.1249 11.4972 17.5988C12.1398 17.9091 12.8734 18.2499 13.7875 18.2499C15.0334 18.2499 16.5569 16.6238 17.567 15.1023C18.3822 13.8741 19.75 11.3837 19.75 8.49991C19.75 5.68741 19.375 3.7735 18.5645 2.47319ZM8.125 11.4999C7.50391 11.4999 7 10.4926 7 9.24991C7 8.00725 7.50391 6.99991 8.125 6.99991C8.74609 6.99991 9.25 8.00725 9.25 9.24991C9.25 10.4926 8.74609 11.4999 8.125 11.4999ZM11.875 11.4999C11.2539 11.4999 10.75 10.4926 10.75 9.24991C10.75 8.00725 11.2539 6.99991 11.875 6.99991C12.4961 6.99991 13 8.00725 13 9.24991C13 10.4926 12.4961 11.4999 11.875 11.4999Z" fill="white"/>
</svg>
