<svg width="9" height="24" viewBox="0 0 9 24" fill="none" xmlns="http://www.w3.org/2000/svg">
<g clip-path="url(#clip0_205_322)">
<path fill-rule="evenodd" clip-rule="evenodd" d="M8.65198 1.29782C8.65198 1.07049 8.74229 0.852471 8.90304 0.691725C9.06378 0.53098 9.2818 0.440674 9.50913 0.440674H14.4908C14.7182 0.440674 14.9362 0.53098 15.0969 0.691725C15.2577 0.852471 15.348 1.07049 15.348 1.29782V6.20067L19.596 3.74925C19.7929 3.63559 20.0268 3.60478 20.2464 3.66362C20.466 3.72245 20.6532 3.8661 20.7668 4.06296L23.256 8.37782C23.3696 8.57468 23.4004 8.80864 23.3416 9.02822C23.2828 9.24779 23.1391 9.43501 22.9423 9.54867L18.696 12.0001L22.9423 14.4515C23.04 14.5078 23.1256 14.5828 23.1943 14.6723C23.2629 14.7617 23.3133 14.8638 23.3424 14.9727C23.3716 15.0816 23.3789 15.1952 23.3641 15.307C23.3493 15.4188 23.3125 15.5266 23.256 15.6241L20.7651 19.9372C20.6515 20.1341 20.4642 20.2778 20.2447 20.3366C20.0251 20.3954 19.7911 20.3646 19.5943 20.251L15.348 17.7995V22.7024C15.348 22.9297 15.2577 23.1477 15.0969 23.3085C14.9362 23.4692 14.7182 23.5595 14.4908 23.5595H9.50913C9.2818 23.5595 9.06378 23.4692 8.90304 23.3085C8.74229 23.1477 8.65198 22.9297 8.65198 22.7024V17.7995L4.4057 20.251C4.20883 20.3646 3.97488 20.3954 3.7553 20.3366C3.53572 20.2778 3.34851 20.1341 3.23484 19.9372L0.743984 15.6241C0.630325 15.4272 0.599524 15.1933 0.658356 14.9737C0.717189 14.7541 0.860836 14.5669 1.0577 14.4532L5.3057 12.0001L1.0577 9.54867C0.860836 9.43501 0.717189 9.24779 0.658356 9.02822C0.599524 8.80864 0.630325 8.57468 0.743984 8.37782L3.23484 4.06296C3.34851 3.8661 3.53572 3.72245 3.7553 3.66362C3.97488 3.60478 4.20883 3.63559 4.4057 3.74925L8.65198 6.20067V1.29953V1.29782Z" fill="white"/>
</g>
<defs>
<clipPath id="clip0_205_322">
<rect width="24" height="24" fill="white"/>
</clipPath>
</defs>
</svg>
