<svg width="20" height="20" viewBox="0 0 20 20" fill="none" xmlns="http://www.w3.org/2000/svg">
<path d="M0 10C0 5.28601 0 2.93001 1.464 1.46501C2.641 0.28801 4.394 0.0570097 7.481 0.0110097V2.06101C7.481 2.61701 7.005 3.05901 6.521 3.33401C5.606 3.85201 4.961 5.04001 4.961 6.09101C4.961 6.75922 5.22645 7.40007 5.69894 7.87257C6.17144 8.34506 6.81229 8.61051 7.4805 8.61051C8.14871 8.61051 8.78956 8.34506 9.26206 7.87257C9.73455 7.40007 10 6.75922 10 6.09101C10 6.75909 10.2654 7.39981 10.7378 7.87221C11.2102 8.34462 11.8509 8.61001 12.519 8.61001C13.1871 8.61001 13.8278 8.34462 14.3002 7.87221C14.7726 7.39981 15.038 6.75909 15.038 6.09101C15.038 5.04001 14.394 3.85101 13.479 3.33401C12.995 3.05901 12.519 2.61701 12.519 2.06101V0.0100098C15.607 0.0560098 17.359 0.28701 18.535 1.46401C20 2.92901 20 5.28601 20 10C20 14.714 20 17.071 18.535 18.536C17.364 19.707 15.621 19.942 12.557 19.988V17.985C12.557 17.428 13.033 16.986 13.517 16.712C14.432 16.194 15.076 15.006 15.076 13.954C15.076 13.2859 14.8106 12.6452 14.3382 12.1728C13.8658 11.7004 13.2251 11.435 12.557 11.435C11.8889 11.435 11.2482 11.7004 10.7758 12.1728C10.3034 12.6452 10.038 13.2859 10.038 13.954C10.038 13.2859 9.77261 12.6452 9.3002 12.1728C8.8278 11.7004 8.18708 11.435 7.519 11.435C6.85092 11.435 6.2102 11.7004 5.7378 12.1728C5.26539 12.6452 5 13.2859 5 13.954C5 15.006 5.644 16.194 6.558 16.712C7.043 16.986 7.519 17.428 7.519 17.985V19.99C4.408 19.945 2.646 19.717 1.464 18.536C0 17.07 0 14.714 0 10Z" fill="white"/>
</svg>
