<svg width="12" height="14" viewBox="0 0 12 14" fill="none" xmlns="http://www.w3.org/2000/svg">
<path fill-rule="evenodd" clip-rule="evenodd" d="M5.91992 0.591985L5.62392 0.199985H5.62192L5.61792 0.203985L5.60592 0.213985C5.53468 0.26808 5.46466 0.32376 5.39592 0.380985C4.55213 1.08545 3.777 1.86828 3.08092 2.71899C1.82592 4.26199 0.513916 6.46199 0.513916 8.95599C0.513916 10.611 1.20592 11.866 2.24692 12.694C3.27492 13.513 4.61692 13.9 5.91992 13.9C7.22392 13.9 8.56592 13.513 9.59392 12.694C10.6339 11.865 11.3269 10.611 11.3269 8.95599C11.3269 6.46199 10.0149 4.26199 8.75992 2.71899C8.06388 1.86793 7.28875 1.08476 6.44492 0.379985L6.23492 0.211985L6.22292 0.201985L6.21892 0.199985H6.21692C6.13165 0.135183 6.02751 0.100098 5.92042 0.100098C5.81332 0.100098 5.70918 0.135183 5.62392 0.199985L5.66092 0.248985L5.91992 0.591985ZM4.90592 5.44899C4.90592 5.23498 5.07892 5.06199 5.29292 5.06199H6.54892C6.76292 5.06199 6.93592 5.23498 6.93592 5.44899V6.98599H8.47292C8.68692 6.98599 8.85992 7.15999 8.85992 7.37299V8.62998C8.85965 8.73245 8.81876 8.83063 8.74621 8.90299C8.67367 8.97535 8.57538 9.01598 8.47292 9.01598H6.93592V10.554C6.93592 10.6566 6.89514 10.7551 6.82257 10.8276C6.74999 10.9002 6.65155 10.941 6.54892 10.941H5.29192C5.18945 10.9407 5.09127 10.8998 5.01891 10.8273C4.94655 10.7547 4.90592 10.6565 4.90592 10.554V9.01598H3.36792C3.26562 9.01572 3.1676 8.97497 3.09526 8.90264C3.02293 8.83031 2.98218 8.73228 2.98192 8.62998V7.37299C2.98192 7.15999 3.15492 6.98599 3.36792 6.98599H4.90592V5.44899Z" fill="black"/>
</svg>
