<svg width="10" height="15" viewBox="0 0 10 15" fill="none" xmlns="http://www.w3.org/2000/svg">
<path d="M9.625 2.5C9.83209 2.5 10 2.33209 10 2.125V0.875C10 0.667906 9.83209 0.5 9.625 0.5H0.375C0.167906 0.5 0 0.667906 0 0.875V2.27338C0 2.48047 0.167906 2.64838 0.375 2.64838H3.04C3.89337 2.64838 4.54816 2.95956 4.94531 3.5H0.375C0.167906 3.5 0 3.66791 0 3.875V5.125C0 5.33209 0.167906 5.5 0.375 5.5H5.33616C5.14188 6.62769 4.30613 7.33225 3 7.33225H0.375C0.167906 7.33225 0 7.50016 0 7.70725V9.36388C0 9.46853 0.04375 9.56844 0.120656 9.63944L5.27853 14.4006C5.3478 14.4645 5.43861 14.5 5.53288 14.5H8.11294C8.45431 14.5 8.61812 14.081 8.36728 13.8494L3.65222 9.49706C6.04281 9.42394 7.75047 7.82847 7.97466 5.5H9.625C9.83209 5.5 10 5.33209 10 5.125V3.875C10 3.66791 9.83209 3.5 9.625 3.5H7.79094C7.682 3.13934 7.53219 2.80481 7.34556 2.5H9.625Z" fill="#1E1E1E"/>
</svg>
