<svg width="14" height="14" viewBox="0 0 14 14" fill="none" xmlns="http://www.w3.org/2000/svg">
<path d="M10.625 4V3.625C10.6243 2.67935 10.2544 1.77133 9.59424 1.09427C8.93404 0.417212 8.03565 0.0245918 7.09031 0H6.90969C5.96435 0.0245918 5.06596 0.417212 4.40576 1.09427C3.74557 1.77133 3.37574 2.67935 3.375 3.625V4H0.625C0.591848 4 0.560054 4.01317 0.536612 4.03661C0.51317 4.06005 0.5 4.09185 0.5 4.125V13.5C0.5 13.6326 0.552678 13.7598 0.646447 13.8536C0.740215 13.9473 0.867392 14 1 14H13C13.1326 14 13.2598 13.9473 13.3536 13.8536C13.4473 13.7598 13.5 13.6326 13.5 13.5V4.125C13.5 4.09185 13.4868 4.06005 13.4634 4.03661C13.4399 4.01317 13.4082 4 13.375 4H10.625ZM9.375 4H4.625V3.65625C4.625 2.34875 5.66906 1.26375 6.97656 1.25C7.29033 1.24724 7.60154 1.30661 7.89225 1.4247C8.18295 1.54278 8.44741 1.71725 8.67037 1.93803C8.89333 2.15881 9.07038 2.42154 9.19132 2.71108C9.31226 3.00061 9.37468 3.31122 9.375 3.625V4Z" fill="#1E1E1E"/>
</svg>
