<svg width="24" height="24" viewBox="0 0 24 24" fill="none" xmlns="http://www.w3.org/2000/svg">
<path d="M11 11V7.5H13V11H16.5V13H13L12.9995 16.5H10.9995V13H7.49951V11H11Z" fill="#1E1E1E"/>
<path fill-rule="evenodd" clip-rule="evenodd" d="M6.91161 18.4955C8.13561 19.601 9.47661 20.514 10.9906 21.234C11.8016 21.619 12.7636 21.584 13.5411 21.1405C14.8526 20.3925 15.9941 19.492 17.0976 18.4955C19.4371 16.3825 20.8006 13.475 20.8901 10.4085L20.9946 6.83297C21.0066 6.41697 20.9951 5.49997 20.9951 5.49997C20.4698 5.41714 19.9426 5.34612 19.4141 5.28697C17.7791 5.09097 16.1511 4.89647 14.7226 4.02297L13.7041 3.40047C13.2715 3.13865 12.7755 3.00024 12.2699 3.00024C11.7642 3.00024 11.2682 3.13865 10.8356 3.40047L9.86011 3.99697C8.22661 4.99497 6.23611 5.18397 4.30961 5.36697C3.87311 5.40847 3.43961 5.44997 3.01461 5.49997C3.01461 5.49997 3.00261 6.42247 3.01461 6.84447L3.11911 10.4085C3.20861 13.475 4.57211 16.3825 6.91161 18.4955ZM4.00961 6.40047C4.00961 6.56047 4.01111 6.70797 4.01461 6.81547L4.11861 10.3795C4.20011 13.1645 5.43861 15.8175 7.58161 17.7535C8.73761 18.797 9.99811 19.6545 11.4201 20.3305C11.6762 20.4511 11.9574 20.5087 12.2402 20.4985C12.5231 20.4883 12.7994 20.4107 13.0461 20.272C14.2736 19.572 15.3556 18.7215 16.4276 17.7535C18.5706 15.8175 19.8091 13.165 19.8906 10.3795L19.9951 6.80397C19.9981 6.69197 20.0001 6.53447 20.0001 6.36647C19.7661 6.3368 19.5278 6.30747 19.2851 6.27847L19.2581 6.27547C18.7027 6.2131 18.1489 6.13725 17.5971 6.04797C16.4751 5.85797 15.3011 5.54847 14.2011 4.87647L13.1826 4.25347C12.907 4.08761 12.5915 3.99998 12.2699 3.99998C11.9482 3.99998 11.6327 4.08761 11.3571 4.25347L10.3816 4.84997C9.22161 5.55847 7.94161 5.89447 6.70811 6.09297C5.94311 6.21597 5.11911 6.29447 4.34761 6.36847L4.00961 6.40047Z" fill="#1E1E1E"/>
</svg>
