<svg width="18" height="19" viewBox="0 0 18 19" fill="none" xmlns="http://www.w3.org/2000/svg">
<path fill-rule="evenodd" clip-rule="evenodd" d="M3.91161 15.4955C5.13561 16.601 6.47661 17.514 7.99061 18.234C8.80161 18.619 9.76361 18.584 10.5411 18.1405C11.8526 17.3925 12.9941 16.492 14.0976 15.4955C16.4371 13.3825 17.8006 10.475 17.8901 7.40847L17.9946 3.83297C18.0066 3.41697 17.9951 2.49997 17.9951 2.49997C17.4698 2.41714 16.9426 2.34612 16.4141 2.28697C14.7791 2.09097 13.1511 1.89647 11.7226 1.02297L10.7041 0.40047C10.2715 0.138654 9.77551 0.000244141 9.26986 0.000244141C8.76421 0.000244141 8.2682 0.138654 7.83561 0.40047L6.86011 0.99697C5.22661 1.99497 3.23611 2.18397 1.30961 2.36697C0.873111 2.40847 0.439611 2.44997 0.0146107 2.49997C0.0146107 2.49997 0.00261068 3.42247 0.0146107 3.84447L0.119111 7.40847C0.208611 10.475 1.57211 13.3825 3.91161 15.4955ZM1.00961 3.40047C1.00961 3.56047 1.01111 3.70797 1.01461 3.81547L1.11861 7.37947C1.20011 10.1645 2.43861 12.8175 4.58161 14.7535C5.73761 15.797 6.99811 16.6545 8.42011 17.3305C8.67617 17.4511 8.95736 17.5087 9.24021 17.4985C9.52306 17.4883 9.79938 17.4107 10.0461 17.272C11.2736 16.572 12.3556 15.7215 13.4276 14.7535C15.5706 12.8175 16.8091 10.165 16.8906 7.37947L16.9951 3.80397C16.9981 3.69197 17.0001 3.53447 17.0001 3.36647C16.7661 3.3368 16.5278 3.30747 16.2851 3.27847L16.2581 3.27547C15.7027 3.2131 15.1489 3.13725 14.5971 3.04797C13.4751 2.85797 12.3011 2.54847 11.2011 1.87647L10.1826 1.25347C9.90704 1.08761 9.59149 0.999976 9.26986 0.999976C8.94823 0.999976 8.63268 1.08761 8.35711 1.25347L7.38161 1.84997C6.22161 2.55847 4.94161 2.89447 3.70811 3.09297C2.94311 3.21597 2.11911 3.29447 1.34761 3.36847L1.00961 3.40047Z" fill="#1E1E1E"/>
</svg>
